<svg width="21" height="21" viewBox="0 0 21 21" fill="none" xmlns="http://www.w3.org/2000/svg">
<path d="M14.4633 3.63533C15.5955 3.69792 16.657 4.20544 17.4166 5.0473C18.1762 5.88915 18.5722 6.9971 18.5184 8.12969C18.5184 10.7757 16.2342 12.401 14.0422 14.3501C11.8785 16.2821 10.7132 17.338 10.3359 17.5818C9.92506 17.3157 8.49011 16.0116 6.62966 14.3501C4.42813 12.3932 2.15339 10.7524 2.15339 8.12969C2.09961 6.9971 2.49567 5.88915 3.25524 5.0473C4.01481 4.20544 5.07633 3.69792 6.20847 3.63533C6.83564 3.61633 7.45701 3.76038 8.01183 4.05342C8.56665 4.34646 9.03594 4.77844 9.37382 5.30715C10.0973 6.3192 10.2179 6.82566 10.3385 6.82566C10.4591 6.82566 10.5779 6.3192 11.2946 5.30457C11.6305 4.77341 12.1 4.33971 12.656 4.0468C13.2121 3.75388 13.8353 3.612 14.4633 3.63533ZM14.4633 1.9127C13.6812 1.88766 12.9035 2.03938 12.1881 2.35658C11.4728 2.67378 10.8382 3.14827 10.3316 3.74472C9.82547 3.15 9.19218 2.67661 8.47852 2.35951C7.76486 2.04241 6.98907 1.88971 6.20847 1.9127C4.61923 1.97484 3.11925 2.66375 2.03654 3.82878C0.953831 4.99381 0.376485 6.54016 0.430753 8.12969C0.430753 11.239 2.62711 13.1486 4.75026 14.9944C4.99402 15.2063 5.24035 15.4199 5.48497 15.6378L6.36954 16.4285C7.33425 17.3465 8.34563 18.2141 9.39966 19.028C9.67854 19.2085 10.0037 19.3046 10.3359 19.3046C10.6681 19.3046 10.9933 19.2085 11.2722 19.028C12.3597 18.1893 13.4022 17.2937 14.3953 16.3449L15.1894 15.6352C15.4418 15.4113 15.6976 15.1882 15.9517 14.9686C17.962 13.2244 20.2411 11.2477 20.2411 8.12969C20.2953 6.54016 19.718 4.99381 18.6353 3.82878C17.5526 2.66375 16.0526 1.97484 14.4633 1.9127Z" fill="#262626"/>
</svg>
