<svg width="10" height="9" viewBox="0 0 10 9" fill="none" xmlns="http://www.w3.org/2000/svg">
<path d="M2.32255 6.43836C1.23658 5.49425 0.217619 4.59325 0.217619 3.13837H0.217746L0.217493 3.13096C0.192069 2.38628 0.462548 1.66183 0.969786 1.11603C1.47678 0.570488 2.17908 0.247789 2.92323 0.218412C3.28424 0.207938 3.64299 0.27863 3.97304 0.42528C4.3034 0.572071 4.59657 0.791216 4.83087 1.06652L4.99653 1.26118L5.162 1.06635C5.39646 0.790292 5.69017 0.57068 6.02127 0.42387C6.35213 0.277164 6.71181 0.206935 7.07356 0.218401C7.81781 0.247708 8.52022 0.570419 9.02728 1.11603C9.48634 1.60999 9.75148 2.25027 9.77886 2.91944C9.76311 2.87227 9.74197 2.83086 9.72277 2.79826C9.6627 2.69622 9.57231 2.59509 9.50262 2.51711C9.49996 2.51414 9.49733 2.51119 9.49473 2.50829C9.44558 2.45325 9.4085 2.41083 9.38238 2.37746C9.42159 2.33417 9.44959 2.27906 9.45782 2.21273C9.46949 2.1187 9.43601 2.03764 9.40933 1.98705C9.35871 1.89107 9.27167 1.79509 9.20488 1.72426C9.24301 1.6881 9.27812 1.63223 9.27543 1.55109C9.27207 1.44976 9.20546 1.38928 9.1906 1.37578L9.19048 1.37567C9.14464 1.33404 9.08329 1.30434 9.03903 1.28527C8.98784 1.2632 8.92899 1.24276 8.86988 1.22622C8.81102 1.20977 8.74704 1.19582 8.68586 1.18874C8.63094 1.18238 8.55346 1.17829 8.48088 1.19997C8.44274 1.21136 8.38795 1.23517 8.3437 1.28731C8.29452 1.34526 8.27731 1.41576 8.28293 1.48097C8.29202 1.58634 8.35944 1.67234 8.41016 1.72855C8.73816 2.09208 8.91687 2.5649 8.91256 3.05269C8.84335 3.08361 8.74125 3.12263 8.61029 3.16897C8.44062 3.229 8.24313 3.29438 8.03083 3.36466C7.8393 3.42807 7.63573 3.49546 7.42968 3.56651C7.01077 3.71096 6.59034 3.86773 6.33168 4.01382C6.26582 4.05102 6.20348 4.09132 6.15202 4.13486C6.10473 4.17487 6.04491 4.23544 6.01576 4.31826C6.01182 4.32945 6.00842 4.34113 6.0057 4.35324C5.97115 4.36922 5.93786 4.38842 5.90603 4.41036C5.76639 4.5066 5.65222 4.65571 5.55765 4.81818C5.36736 5.14513 5.21503 5.59973 5.09801 6.04622C4.97993 6.49675 4.89351 6.95607 4.84037 7.3029C4.8138 7.47627 4.79523 7.62363 4.7852 7.72936C4.78476 7.73402 4.78433 7.73864 4.78391 7.7432C4.7717 7.75727 4.76047 7.774 4.751 7.79391C4.70187 7.89721 4.75081 7.98432 4.76116 8.00171C4.78995 8.05008 4.8305 8.07627 4.84331 8.08442C4.91876 8.1324 5.03366 8.15938 5.17054 8.14551C5.4103 8.12122 5.72985 7.9734 6.12375 7.55833C6.13771 7.57679 6.15799 7.59873 6.1856 7.61676C6.21499 7.63594 6.26299 7.65714 6.32291 7.65345C6.00611 7.93272 5.68026 8.20165 5.34585 8.4598C5.24189 8.52524 5.12149 8.56001 4.99854 8.56001C4.8756 8.56001 4.75523 8.52525 4.65128 8.45983C4.12807 8.05542 3.62594 7.62444 3.14687 7.16859L3.14695 7.16851L3.1419 7.164L2.69553 6.76501L2.69526 6.76477C2.58096 6.66294 2.46599 6.56302 2.35312 6.46493C2.34291 6.45606 2.33272 6.44721 2.32255 6.43836ZM2.32255 6.43836L2.17997 6.60236M2.32255 6.43836L2.17997 6.60236M2.17997 6.60236C2.19013 6.61119 2.2003 6.62003 2.21047 6.62888C2.3235 6.7271 2.43747 6.82615 2.55071 6.92703M2.17997 6.60236C1.10861 5.67095 0.000304852 4.70738 0.000304852 3.13837C-0.0270792 2.33628 0.264255 1.55598 0.810601 0.968095C1.35695 0.380211 2.11385 0.0325818 2.91579 0.0012225L2.55071 6.92703M2.55071 6.92703L2.99707 7.32602L2.55071 6.92703ZM6.3547 4.53739L6.41881 4.35487C6.42348 4.3646 6.42763 4.37613 6.43026 4.38942C6.43625 4.41974 6.43169 4.44565 6.42573 4.46257C6.4209 4.47631 6.41569 4.483 6.4157 4.48299C6.4157 4.48297 6.42 4.47745 6.43274 4.46667C6.45537 4.44752 6.49196 4.42245 6.54542 4.39226C6.76402 4.2688 7.14687 4.12377 7.57136 3.9774C7.76291 3.91135 7.96568 3.84415 8.15949 3.77991C8.31349 3.72887 8.46184 3.6797 8.59441 3.63447C8.44956 3.8896 8.32071 4.11594 8.1967 4.32334C7.83087 4.7107 7.41848 5.14188 7.01112 5.56433C6.46754 6.12805 5.93353 6.67559 5.53186 7.08197C5.43813 7.17679 5.35174 7.2638 5.2742 7.34145C5.32594 7.00916 5.40811 6.57737 5.51844 6.15641C5.63287 5.71979 5.7734 5.31151 5.93329 5.03682C6.01381 4.89847 6.08907 4.81206 6.15267 4.76823C6.20724 4.73062 6.24385 4.72879 6.28269 4.74243L6.3547 4.53739ZM6.55248 7.37589C6.56416 7.27683 6.5706 7.10629 6.57181 6.83463C6.67497 6.74379 6.74067 6.68845 6.78149 6.65578C6.78336 6.65545 6.78509 6.65509 6.78667 6.6547C6.80271 6.64872 6.82711 6.63668 6.83576 6.63145C6.84131 6.6278 6.85046 6.62121 6.85412 6.61837C6.8662 6.60877 6.87466 6.59981 6.87552 6.59893C6.88286 6.59131 6.88842 6.58435 6.88953 6.58297L6.88965 6.58282L6.88996 6.58244C6.89084 6.58136 6.89307 6.57862 6.89613 6.5745C6.90837 6.55983 6.94244 6.52011 7.02215 6.43165C7.11797 6.34626 7.20784 6.26321 7.2926 6.18182C7.3423 6.14627 7.38976 6.11748 7.43977 6.0875C7.44446 6.08468 7.44918 6.08186 7.45392 6.07902C7.59299 5.99574 7.75243 5.90026 7.98445 5.67279L7.99384 5.66358L8.00205 5.65332C8.15811 5.45812 8.64954 4.79989 9.02156 4.21663C9.10861 4.08015 9.19169 3.94386 9.26311 3.81617C9.49926 3.55727 9.6723 3.35909 9.73964 3.26374L9.73987 3.2639L9.7458 3.25454C9.75962 3.23268 9.77057 3.21075 9.77903 3.18893C9.75486 4.61889 8.70747 5.54232 7.69011 6.425C7.56147 6.5362 7.43166 6.64939 7.30343 6.76318L7.30286 6.76369L6.90213 7.12183L6.90205 7.12174L6.89682 7.12673C6.77846 7.23981 6.65869 7.35138 6.53754 7.46141C6.53775 7.46055 6.53795 7.45975 6.53814 7.45902C6.54472 7.43279 6.54914 7.40421 6.55248 7.37589ZM9.06189 3.2013C9.06193 3.20129 9.06193 3.20205 9.06178 3.20368C9.06177 3.20214 9.06185 3.20131 9.06189 3.2013ZM9.34076 2.31384C9.34081 2.31386 9.34114 2.3146 9.3416 2.31602C9.34094 2.31454 9.34072 2.31383 9.34076 2.31384Z" fill="#FF0014" stroke="#FF0014" stroke-width="0.434629"/>
</svg>
